<?xml version="1.0" encoding="UTF-8" standalone="no"?> <!-- Created with Inkscape (http://www.inkscape.org/) --> <svg xmlns:inkscape="http://www.inkscape.org/namespaces/inkscape" xmlns:rdf="http://www.w3.org/1999/02/22-rdf-syntax-ns#" xmlns="http://www.w3.org/2000/svg" xmlns:sodipodi="http://sodipodi.sourceforge.net/DTD/sodipodi-0.dtd" xmlns:cc="http://creativecommons.org/ns#" xmlns:xlink="http://www.w3.org/1999/xlink" xmlns:dc="http://purl.org/dc/elements/1.1/" xmlns:svg="http://www.w3.org/2000/svg" xmlns:ns1="http://sozi.baierouge.fr" id="svg3446" sodipodi:docname="boxing glove.svg" viewBox="0 0 64 64" inkscape:version="0.48.3.1 r9886"><title id="title4327">Boxing glove</title><defs id="defs3448"><linearGradient id="linearGradient4255" y2="161.85" gradientUnits="userSpaceOnUse" x2="118.23" y1="160.33" x1="125.41" inkscape:collect="always"><stop id="stop4251" style="stop-color:#000000" offset="0"></stop><stop id="stop4253" style="stop-color:#364e59" offset="1"></stop></linearGradient><linearGradient id="linearGradient4263" y2="144.83" gradientUnits="userSpaceOnUse" x2="139.75" y1="144.83" x1="113.5" inkscape:collect="always"><stop id="stop4259" style="stop-color:#000000" offset="0"></stop><stop id="stop4261" style="stop-color:#666666" offset="1"></stop></linearGradient><linearGradient id="linearGradient4273" y2="16.553" gradientUnits="userSpaceOnUse" x2="36.082" y1="14.938" x1="43.103" inkscape:collect="always"><stop id="stop4269" style="stop-color:#ffffff" offset="0"></stop><stop id="stop4271" style="stop-color:#ffffff;stop-opacity:0" offset="1"></stop></linearGradient><filter id="filter4275" height="1.4243" width="1.6432" y="-.21215" x="-.32159" inkscape:collect="always"><feGaussianBlur id="feGaussianBlur4277" stdDeviation="1.1924145" inkscape:collect="always"></feGaussianBlur></filter><linearGradient id="linearGradient4293" y2="149.42" gradientUnits="userSpaceOnUse" x2="117.59" y1="142.24" x1="113.06" inkscape:collect="always"><stop id="stop4289" style="stop-color:#b50000" offset="0"></stop><stop id="stop4291" style="stop-color:#ff4141" offset="1"></stop></linearGradient></defs><g id="layer1" inkscape:label="Layer 1" inkscape:groupmode="layer"><g id="g5316" style="stroke:#e37b82" inkscape:export-ydpi="118.24598" inkscape:export-filename="F:\FASTALLOY\TTD\2012 TTD\today\logo_projects\KOM\kom_logo2.png" transform="matrix(-.59317 -.95830 -.95830 .51338 243.46 73.109)" inkscape:export-xdpi="118.24598"><path id="path5318" style="stroke-width:0;fill:url(#linearGradient4255)" inkscape:connector-curvature="0" d="m113.24 160.66 0.0608 0.5469-1.1048 1.2264 1.0441 5.9496 1.7733 1.0441-0.85627 1.718c6.5541 0.45239 11.979-1.945 15.827-5.1542l-0.5469-10.734c-5.9645 1.1105-10.526 0.18559-16.197 5.4027zm1.5578 6.3087c0.93303-1.0273 3.2924-2.0282 6.1264-2.4914 3.7788-0.61773 6.9693-0.0435 7.1318 1.2761 0.16256 1.3195-2.773 2.8846-6.5518 3.5024-3.7788 0.61773-6.9748 0.049-7.1374-1.2706-0.0406-0.32988 0.11989-0.67402 0.4309-1.0165z"></path><path id="path5320" sodipodi:nodetypes="cccccccccccccccccccccscc" style="stroke-width:0;fill:url(#linearGradient4293)" inkscape:connector-curvature="0" d="m112.34 161.1c4.4907-4.6328 8.6872-5.16 12.708-5.5629l-0.83104-2.4295 1.2269 0.36806c-2.3031-2.6355-1.6666-3.5146-2.147-6.8092l-0.79746-0.30673c0.21201-1.3217 0.33587-2.8324 1.6563-1.779l-1.1655-0.67478 2.7605-0.79747c-0.79822-1.1815-1.6975-1.7564-2.8218-0.9815l2.9445-1.8403c-0.17429-1.0117-0.96356-1.4084-1.779-1.779l3.9873 0.42941c-0.0986-1.3265-1.4679-2.1447-3.1899-2.8218l4.7235 0.79746c-0.25155-1.1033-1.5028-2.0638-2.8832-3.0058l3.4966 2.2697c-0.0781-0.78473 0.56576-1.3632-1.6563-2.7605l3.3739 2.2697c1.1302-1.2977 1.1786-2.7307-0.30672-4.3554l4.8462 3.3739c4.2626-4.2546-2.0158-10.446-5.8209-10.68-16.699-1.0299-30.686 16.2-17.396 33.512 0.81243 1.2577-0.66607 2.7205-0.92881 3.5638z"></path><path id="path5322" sodipodi:nodetypes="ccccccccccccccccccccccccscccccscs" style="stroke-width:0;fill:url(#linearGradient4263)" inkscape:connector-curvature="0" d="m126.48 133.91 3.4416 3.1875-5.0381-1.1048c1.3145 0.9172 2.5524 1.5906 4.1764 3.4361l-4.9111-0.97779 1.9059 1.6518-3.0052 1.6573c1.4531 0.086 2.7337 0.26642 2.5136 1.2872l-2.8837 0.79551 0.43089 0.43089-0.67396 1.6573 0.9778 0.6132 0.24859 5.0326 0.16529 1.3622c-3.7882-1.7911-7.5937 2.7112-10.328 5.3344 7.3132-4.4391 8.6356-3.5584 16.543-2.6474l0.24307-2.3312c4.7794-4.9654 14.013-13.263 6.8059-18.341l-5.2757-3.5632c0.53777 1.1447 1.6871 2.0744 0.0663 3.9885l-3.5632-1.9611 2.0882 2.2097-3.9278-1.718zm7.2534 0.80102c0.51215-0.46312 1.251-0.33827 2.4362 1.7733 0.23033 2.3092-3.9877 7.6615-11.131 11.927l1.7788 2.3975c0.34027 0.69491-0.52404 0.66208-0.91703 0.91703-1.1608-2.1238-2.7444-3.0422-1.3203-6.4689 0 0 3.0725-2.3224 4.3586-3.7399 1.6964-1.8696 4.3531-6.1982 4.3531-6.1982 0.12734-0.23299 0.27123-0.4533 0.44195-0.60767z"></path><path id="path5324" sodipodi:nodetypes="ccccssscc" style="stroke-width:0;fill:#ff4141" inkscape:connector-curvature="0" d="m125.23 151.13c0.3502-0.22718 1.1232-0.20072 0.81996-0.81996l-1.3597-2.125c6.3658-3.8009 11.22-9.441 11.015-11.499-1.4081-2.5088-2.2963-1.3569-2.7502-0.5264 0 0-2.3695 3.8551-3.8811 5.521-1.1461 1.2632-3.8812 3.3345-3.8812 3.3345-1.3908 1.8732-0.99742 4.222 0.037 6.1145z"></path><path id="path5326" sodipodi:rx="6.940249" sodipodi:ry="26.372946" style="stroke-width:0;fill:#b50000" sodipodi:type="arc" d="m90.917 225.8c0 14.565-3.1073 26.373-6.9402 26.373-3.833 0-6.9402-11.808-6.9402-26.373s3.1073-26.373 6.9402-26.373c3.833 0 6.9402 11.808 6.9402 26.373z" transform="matrix(-.038769 -.31469 .23715 -.038769 70.916 202.05)" sodipodi:cy="225.79974" sodipodi:cx="83.977013"></path><path id="path5328" sodipodi:nodetypes="cccccccccccccccccccccccc" style="stroke:#e37b82;stroke-dasharray:0.25, 0.25;stroke-width:.25;fill:#d01212" inkscape:connector-curvature="0" d="m123.54 147.11-1.041-1.041 0.69403-1.9086-0.34701-0.1735 2.7761-0.86753-0.34702-0.69403-2.2556-0.69402 3.2966-1.388-1.7351-1.9086 4.5112 0.86753-4.1642-3.2966 4.6847 1.388-3.2966-3.6436 3.8171 1.7351-1.7351-2.2556 3.8171 1.9086 0.34701-1.5616-0.52051-1.9086 2.3706 1.1273-3.4117 5.2925-2.9496 3.9906-2.1803 1.9905-0.76928 0.43858z"></path></g><path id="path4265" sodipodi:rx="2.6363637" sodipodi:ry="7.6363635" style="opacity:.92035;filter:url(#filter4275);stroke-width:0;fill:url(#linearGradient4273)" sodipodi:type="arc" d="m44.182 17.818a2.6364 7.6364 0 1 1 -5.2727 0 2.6364 7.6364 0 1 1 5.2727 0z" transform="translate(7.1841 7.6629)" sodipodi:cy="17.818182" sodipodi:cx="41.545456"></path><path id="path4295" sodipodi:rx="2.6363637" sodipodi:ry="7.6363635" style="opacity:.39381;filter:url(#filter4275);stroke-width:0;fill:#364e59" sodipodi:type="arc" d="m44.182 17.818a2.6364 7.6364 0 1 1 -5.2727 0 2.6364 7.6364 0 1 1 5.2727 0z" transform="matrix(.59860 .53918 -2.234 .14447 48.022 22.974)" sodipodi:cy="17.818182" sodipodi:cx="41.545456"></path></g><metadata></metadata></svg> 